<mxfile host="Electron" agent="Mozilla/5.0 (Macintosh; Intel Mac OS X 10_15_7) AppleWebKit/537.36 (KHTML, like Gecko) draw.io/26.1.1 Chrome/132.0.6834.210 Electron/34.3.3 Safari/537.36" version="26.1.1">
  <diagram name="Page-1" id="vp3LkjNwgTNdVPef49MM">
    <mxGraphModel dx="1114" dy="878" grid="1" gridSize="10" guides="1" tooltips="1" connect="1" arrows="1" fold="1" page="1" pageScale="1" pageWidth="827" pageHeight="1169" math="0" shadow="0">
      <root>
        <mxCell id="0" />
        <mxCell id="1" parent="0" />
        <mxCell id="HYrhvjlzuCwsSrI3x7ga-4" style="edgeStyle=orthogonalEdgeStyle;rounded=0;orthogonalLoop=1;jettySize=auto;html=1;entryX=0.5;entryY=0;entryDx=0;entryDy=0;endArrow=block;endFill=1;" edge="1" parent="1" source="HYrhvjlzuCwsSrI3x7ga-1" target="HYrhvjlzuCwsSrI3x7ga-2">
          <mxGeometry relative="1" as="geometry" />
        </mxCell>
        <mxCell id="HYrhvjlzuCwsSrI3x7ga-1" value="runBlocking() 으로&lt;div&gt;생성되는 코루틴&lt;/div&gt;" style="rounded=1;whiteSpace=wrap;html=1;" vertex="1" parent="1">
          <mxGeometry x="60" y="80" width="120" height="50" as="geometry" />
        </mxCell>
        <mxCell id="HYrhvjlzuCwsSrI3x7ga-5" style="edgeStyle=orthogonalEdgeStyle;rounded=0;orthogonalLoop=1;jettySize=auto;html=1;entryX=0.5;entryY=0;entryDx=0;entryDy=0;endArrow=block;endFill=1;" edge="1" parent="1" source="HYrhvjlzuCwsSrI3x7ga-2" target="HYrhvjlzuCwsSrI3x7ga-3">
          <mxGeometry relative="1" as="geometry" />
        </mxCell>
        <mxCell id="HYrhvjlzuCwsSrI3x7ga-2" value="바깥쪽 launch() 로&lt;div&gt;생성되는 코루틴&lt;/div&gt;" style="rounded=1;whiteSpace=wrap;html=1;" vertex="1" parent="1">
          <mxGeometry x="60" y="180" width="120" height="50" as="geometry" />
        </mxCell>
        <mxCell id="HYrhvjlzuCwsSrI3x7ga-3" value="안쪽 launch() 로&lt;div&gt;생성되는 코루틴&lt;/div&gt;" style="rounded=1;whiteSpace=wrap;html=1;" vertex="1" parent="1">
          <mxGeometry x="60" y="280" width="120" height="50" as="geometry" />
        </mxCell>
        <mxCell id="HYrhvjlzuCwsSrI3x7ga-6" value="" style="endArrow=block;html=1;rounded=0;endFill=1;" edge="1" parent="1">
          <mxGeometry width="50" height="50" relative="1" as="geometry">
            <mxPoint x="210" y="80" as="sourcePoint" />
            <mxPoint x="210" y="330" as="targetPoint" />
          </mxGeometry>
        </mxCell>
        <mxCell id="HYrhvjlzuCwsSrI3x7ga-7" value="부모" style="text;html=1;align=center;verticalAlign=middle;whiteSpace=wrap;rounded=0;fontStyle=1" vertex="1" parent="1">
          <mxGeometry x="200" y="80" width="60" height="30" as="geometry" />
        </mxCell>
        <mxCell id="HYrhvjlzuCwsSrI3x7ga-8" value="자식" style="text;html=1;align=center;verticalAlign=middle;whiteSpace=wrap;rounded=0;fontStyle=1" vertex="1" parent="1">
          <mxGeometry x="200" y="290" width="60" height="30" as="geometry" />
        </mxCell>
      </root>
    </mxGraphModel>
  </diagram>
</mxfile>
